{
    "asset": {
        "version": "2.0",
        "generator": "Open Asset Import Library (assimp v5.0.5eb040c7)"
    },
    "accessors": [
        {
            "bufferView": 0,
            "byteOffset": 0,
            "componentType": 5126,
            "count": 2292,
            "type": "VEC3",
            "max": [
                17.519847869873048,
                136.85687255859376,
                54.241363525390628
            ],
            "min": [
                -91.32150268554688,
                -64.09754943847656,
                -54.24136734008789
            ]
        },
        {
            "bufferView": 1,
            "byteOffset": 0,
            "componentType": 5126,
            "count": 2292,
            "type": "VEC3",
            "max": [
                1.0,
                1.0,
                0.9998437762260437
            ],
            "min": [
                -1.0,
                -0.9995375871658325,
                -0.9998390078544617
            ]
        },
        {
            "bufferView": 2,
            "byteOffset": 0,
            "componentType": 5126,
            "count": 2292,
            "type": "VEC4",
            "max": [
                1.0,
                1.0,
                1.0,
                1.0
            ],
            "min": [
                0.6470588445663452,
                0.6509804129600525,
                0.23137255012989045,
                1.0
            ]
        },
        {
            "bufferView": 3,
            "byteOffset": 0,
            "componentType": 5125,
            "count": 12546,
            "type": "SCALAR",
            "max": [
                2291
            ],
            "min": [
                0
            ]
        }
    ],
    "buffers": [
        {
            "byteLength": 141864,
            "uri": "result.bin"
        }
    ],
    "bufferViews": [
        {
            "buffer": 0,
            "byteOffset": 0,
            "byteLength": 27504,
            "target": 34962
        },
        {
            "buffer": 0,
            "byteOffset": 27504,
            "byteLength": 27504,
            "target": 34962
        },
        {
            "buffer": 0,
            "byteOffset": 55008,
            "byteLength": 36672,
            "target": 34962
        },
        {
            "buffer": 0,
            "byteOffset": 91680,
            "byteLength": 50184,
            "target": 34963
        }
    ],
    "materials": [
        {
            "name": "Material #39",
            "pbrMetallicRoughness": {
                "metallicFactor": 0.0
            }
        }
    ],
    "meshes": [
        {
            "name": "Line001",
            "primitives": [
                {
                    "mode": 4,
                    "material": 0,
                    "indices": 3,
                    "attributes": {
                        "POSITION": 0,
                        "NORMAL": 1,
                        "COLOR_0": 2
                    }
                }
            ]
        }
    ],
    "nodes": [
        {
            "name": "RootNode",
            "children": [
                1
            ]
        },
        {
            "name": "Line001_$AssimpFbx$_Translation",
            "matrix": [
                1.0,
                0.0,
                0.0,
                0.0,
                0.0,
                1.0,
                0.0,
                0.0,
                0.0,
                0.0,
                1.0,
                0.0,
                66.67020416259766,
                60.08795928955078,
                0.0000026265281576343115,
                1.0
            ],
            "children": [
                2
            ]
        },
        {
            "name": "Line001_$AssimpFbx$_PreRotation",
            "matrix": [
                1.0,
                0.0,
                0.0,
                0.0,
                0.0,
                -4.371138828673793e-8,
                -1.0,
                0.0,
                0.0,
                1.0,
                -4.371138828673793e-8,
                0.0,
                0.0,
                0.0,
                0.0,
                1.0
            ],
            "children": [
                3
            ]
        },
        {
            "name": "Line001_$AssimpFbx$_Rotation",
            "matrix": [
                1.0,
                0.0,
                0.0,
                0.0,
                0.0,
                -1.6292068494294654e-7,
                1.0,
                0.0,
                0.0,
                -1.0,
                -1.6292068494294654e-7,
                0.0,
                0.0,
                0.0,
                0.0,
                1.0
            ],
            "children": [
                4
            ]
        },
        {
            "name": "Line001",
            "mesh": 0
        }
    ],
    "scenes": [
        {
            "nodes": [
                0
            ]
        }
    ],
    "scene": 0
}