{
    "asset": {
        "version": "2.0",
        "generator": "Open Asset Import Library (assimp v5.0.5eb040c7)"
    },
    "accessors": [
        {
            "bufferView": 0,
            "byteOffset": 0,
            "componentType": 5126,
            "count": 1158,
            "type": "VEC3",
            "max": [
                212.32366943359376,
                241.50244140625,
                158.34169006347657
            ],
            "min": [
                -218.39486694335938,
                -250.3606719970703,
                55.5346565246582
            ]
        },
        {
            "bufferView": 1,
            "byteOffset": 0,
            "componentType": 5126,
            "count": 1158,
            "type": "VEC3",
            "max": [
                0.9999987483024597,
                0.9996200203895569,
                0.9999989867210388
            ],
            "min": [
                -0.9999358057975769,
                -0.9996201992034912,
                -0.9999247193336487
            ]
        },
        {
            "bufferView": 2,
            "byteOffset": 0,
            "componentType": 5125,
            "count": 6936,
            "type": "SCALAR",
            "max": [
                1157
            ],
            "min": [
                0
            ]
        },
        {
            "bufferView": 3,
            "byteOffset": 0,
            "componentType": 5126,
            "count": 2898,
            "type": "VEC3",
            "max": [
                169.2075653076172,
                481.7737121582031,
                209.18853759765626
            ],
            "min": [
                -255.90858459472657,
                -85.07230377197266,
                -196.31805419921876
            ]
        },
        {
            "bufferView": 4,
            "byteOffset": 0,
            "componentType": 5126,
            "count": 2898,
            "type": "VEC3",
            "max": [
                0.9996793866157532,
                0.9994944930076599,
                0.9981122016906738
            ],
            "min": [
                -0.9998721480369568,
                -0.9995723962783814,
                -0.9999669194221497
            ]
        },
        {
            "bufferView": 5,
            "byteOffset": 0,
            "componentType": 5125,
            "count": 17376,
            "type": "SCALAR",
            "max": [
                2897
            ],
            "min": [
                0
            ]
        },
        {
            "bufferView": 6,
            "byteOffset": 0,
            "componentType": 5126,
            "count": 160,
            "type": "VEC3",
            "max": [
                145.8525848388672,
                457.8574523925781,
                205.67547607421876
            ],
            "min": [
                -253.27053833007813,
                -61.30377197265625,
                -195.11422729492188
            ]
        },
        {
            "bufferView": 7,
            "byteOffset": 0,
            "componentType": 5125,
            "count": 320,
            "type": "SCALAR",
            "max": [
                159
            ],
            "min": [
                0
            ]
        },
        {
            "bufferView": 8,
            "byteOffset": 0,
            "componentType": 5126,
            "count": 320,
            "type": "VEC3",
            "max": [
                50.673980712890628,
                194.87530517578126,
                32.604949951171878
            ],
            "min": [
                -471.3948059082031,
                -206.22421264648438,
                -2.1289520263671877
            ]
        },
        {
            "bufferView": 9,
            "byteOffset": 0,
            "componentType": 5126,
            "count": 320,
            "type": "VEC3",
            "max": [
                0.985948383808136,
                0.9804559946060181,
                1.0
            ],
            "min": [
                -0.985948383808136,
                -0.9804558753967285,
                -1.0
            ]
        },
        {
            "bufferView": 10,
            "byteOffset": 0,
            "componentType": 5125,
            "count": 1128,
            "type": "SCALAR",
            "max": [
                319
            ],
            "min": [
                0
            ]
        },
        {
            "bufferView": 11,
            "byteOffset": 0,
            "componentType": 5126,
            "count": 640,
            "type": "VEC3",
            "max": [
                51.36916732788086,
                -194.79518127441407,
                26.522201538085939
            ],
            "min": [
                -472.0899963378906,
                -206.52317810058595,
                3.9543304443359377
            ]
        },
        {
            "bufferView": 12,
            "byteOffset": 0,
            "componentType": 5126,
            "count": 640,
            "type": "VEC3",
            "max": [
                0.9982767105102539,
                0.9980126619338989,
                0.9686475992202759
            ],
            "min": [
                -0.9982767105102539,
                -0.9979723691940308,
                -0.9686691164970398
            ]
        },
        {
            "bufferView": 13,
            "byteOffset": 0,
            "componentType": 5125,
            "count": 1152,
            "type": "SCALAR",
            "max": [
                639
            ],
            "min": [
                0
            ]
        },
        {
            "bufferView": 14,
            "byteOffset": 0,
            "componentType": 5126,
            "count": 320,
            "type": "VEC3",
            "max": [
                50.673980712890628,
                194.87530517578126,
                32.60493469238281
            ],
            "min": [
                -458.7991638183594,
                -206.22421264648438,
                -2.1289520263671877
            ]
        },
        {
            "bufferView": 15,
            "byteOffset": 0,
            "componentType": 5126,
            "count": 320,
            "type": "VEC3",
            "max": [
                0.985948383808136,
                0.9804559946060181,
                1.0
            ],
            "min": [
                -0.9859483242034912,
                -0.9804558753967285,
                -1.0
            ]
        },
        {
            "bufferView": 16,
            "byteOffset": 0,
            "componentType": 5125,
            "count": 1128,
            "type": "SCALAR",
            "max": [
                319
            ],
            "min": [
                0
            ]
        },
        {
            "bufferView": 17,
            "byteOffset": 0,
            "componentType": 5126,
            "count": 640,
            "type": "VEC3",
            "max": [
                51.36916732788086,
                -194.79518127441407,
                26.522186279296876
            ],
            "min": [
                -459.4943542480469,
                -206.52317810058595,
                3.9543304443359377
            ]
        },
        {
            "bufferView": 18,
            "byteOffset": 0,
            "componentType": 5126,
            "count": 640,
            "type": "VEC3",
            "max": [
                0.9982767105102539,
                0.9980138540267944,
                0.968647837638855
            ],
            "min": [
                -0.9982767105102539,
                -0.9979722499847412,
                -0.9686691164970398
            ]
        },
        {
            "bufferView": 19,
            "byteOffset": 0,
            "componentType": 5125,
            "count": 1152,
            "type": "SCALAR",
            "max": [
                639
            ],
            "min": [
                0
            ]
        }
    ],
    "buffers": [
        {
            "byteLength": 262112,
            "uri": "result.bin"
        }
    ],
    "bufferViews": [
        {
            "buffer": 0,
            "byteOffset": 0,
            "byteLength": 13896,
            "target": 34962
        },
        {
            "buffer": 0,
            "byteOffset": 13896,
            "byteLength": 13896,
            "target": 34962
        },
        {
            "buffer": 0,
            "byteOffset": 27792,
            "byteLength": 27744,
            "target": 34963
        },
        {
            "buffer": 0,
            "byteOffset": 55536,
            "byteLength": 34776,
            "target": 34962
        },
        {
            "buffer": 0,
            "byteOffset": 90312,
            "byteLength": 34776,
            "target": 34962
        },
        {
            "buffer": 0,
            "byteOffset": 125088,
            "byteLength": 69504,
            "target": 34963
        },
        {
            "buffer": 0,
            "byteOffset": 194592,
            "byteLength": 1920,
            "target": 34962
        },
        {
            "buffer": 0,
            "byteOffset": 196512,
            "byteLength": 1280,
            "target": 34963
        },
        {
            "buffer": 0,
            "byteOffset": 197792,
            "byteLength": 3840,
            "target": 34962
        },
        {
            "buffer": 0,
            "byteOffset": 201632,
            "byteLength": 3840,
            "target": 34962
        },
        {
            "buffer": 0,
            "byteOffset": 205472,
            "byteLength": 4512,
            "target": 34963
        },
        {
            "buffer": 0,
            "byteOffset": 209984,
            "byteLength": 7680,
            "target": 34962
        },
        {
            "buffer": 0,
            "byteOffset": 217664,
            "byteLength": 7680,
            "target": 34962
        },
        {
            "buffer": 0,
            "byteOffset": 225344,
            "byteLength": 4608,
            "target": 34963
        },
        {
            "buffer": 0,
            "byteOffset": 229952,
            "byteLength": 3840,
            "target": 34962
        },
        {
            "buffer": 0,
            "byteOffset": 233792,
            "byteLength": 3840,
            "target": 34962
        },
        {
            "buffer": 0,
            "byteOffset": 237632,
            "byteLength": 4512,
            "target": 34963
        },
        {
            "buffer": 0,
            "byteOffset": 242144,
            "byteLength": 7680,
            "target": 34962
        },
        {
            "buffer": 0,
            "byteOffset": 249824,
            "byteLength": 7680,
            "target": 34962
        },
        {
            "buffer": 0,
            "byteOffset": 257504,
            "byteLength": 4608,
            "target": 34963
        }
    ],
    "materials": [
        {
            "name": "Catifea",
            "pbrMetallicRoughness": {
                "baseColorFactor": [
                    0.5,
                    0.5,
                    0.5,
                    1.0
                ],
                "metallicFactor": 0.0,
                "roughnessFactor": 0.9796561598777771
            }
        },
        {
            "name": "Material #27",
            "pbrMetallicRoughness": {
                "baseColorFactor": [
                    0.007843137718737126,
                    0.007843137718737126,
                    0.007843137718737126,
                    1.0
                ],
                "metallicFactor": 0.0,
                "roughnessFactor": 0.8998281359672546
            }
        },
        {
            "name": "Material #28",
            "pbrMetallicRoughness": {
                "baseColorFactor": [
                    0.01568627543747425,
                    0.01568627543747425,
                    0.01568627543747425,
                    1.0
                ],
                "metallicFactor": 0.0,
                "roughnessFactor": 0.9563976526260376
            }
        }
    ],
    "meshes": [
        {
            "name": "Box002",
            "primitives": [
                {
                    "mode": 4,
                    "material": 0,
                    "indices": 2,
                    "attributes": {
                        "POSITION": 0,
                        "NORMAL": 1
                    }
                }
            ]
        },
        {
            "name": "Line006",
            "primitives": [
                {
                    "mode": 4,
                    "material": 0,
                    "indices": 5,
                    "attributes": {
                        "POSITION": 3,
                        "NORMAL": 4
                    }
                }
            ]
        },
        {
            "name": "RootNode",
            "primitives": [
                {
                    "mode": 1,
                    "material": 0,
                    "indices": 7,
                    "attributes": {
                        "POSITION": 6
                    }
                }
            ]
        },
        {
            "name": "Line008",
            "primitives": [
                {
                    "mode": 4,
                    "material": 1,
                    "indices": 10,
                    "attributes": {
                        "POSITION": 8,
                        "NORMAL": 9
                    }
                },
                {
                    "mode": 4,
                    "material": 2,
                    "indices": 13,
                    "attributes": {
                        "POSITION": 11,
                        "NORMAL": 12
                    }
                }
            ]
        },
        {
            "name": "Line007",
            "primitives": [
                {
                    "mode": 4,
                    "material": 1,
                    "indices": 16,
                    "attributes": {
                        "POSITION": 14,
                        "NORMAL": 15
                    }
                },
                {
                    "mode": 4,
                    "material": 2,
                    "indices": 19,
                    "attributes": {
                        "POSITION": 17,
                        "NORMAL": 18
                    }
                }
            ]
        }
    ],
    "nodes": [
        {
            "name": "RootNode",
            "children": [
                1
            ]
        },
        {
            "name": "scaun_$AssimpFbx$_Translation",
            "matrix": [
                1.0,
                0.0,
                0.0,
                0.0,
                0.0,
                1.0,
                0.0,
                0.0,
                0.0,
                0.0,
                1.0,
                0.0,
                -22.595809936523439,
                393.4770812988281,
                -39.0072021484375,
                1.0
            ],
            "children": [
                2
            ]
        },
        {
            "name": "scaun_$AssimpFbx$_PreRotation",
            "matrix": [
                1.0,
                0.0,
                0.0,
                0.0,
                0.0,
                -4.371138828673793e-8,
                -1.0,
                0.0,
                0.0,
                1.0,
                -4.371138828673793e-8,
                0.0,
                0.0,
                0.0,
                0.0,
                1.0
            ],
            "children": [
                3
            ]
        },
        {
            "name": "scaun",
            "children": [
                4,
                8,
                9
            ]
        },
        {
            "name": "Group001",
            "matrix": [
                1.0,
                0.0,
                0.0,
                0.0,
                0.0,
                1.0,
                0.0,
                0.0,
                0.0,
                0.0,
                1.0,
                0.0,
                10.387367248535157,
                0.0,
                188.93124389648438,
                1.0
            ],
            "children": [
                5,
                6,
                7
            ]
        },
        {
            "name": "Box002",
            "matrix": [
                1.0,
                0.0,
                0.0,
                0.0,
                0.0,
                1.0,
                0.0,
                0.0,
                0.0,
                0.0,
                1.0,
                0.0,
                -40.949066162109378,
                3.2203445434570314,
                -260.16070556640627,
                1.0
            ],
            "mesh": 0
        },
        {
            "name": "Line006",
            "matrix": [
                1.0,
                0.0,
                0.0,
                0.0,
                0.0,
                1.0,
                0.0,
                0.0,
                0.0,
                0.0,
                1.0,
                0.0,
                90.13636016845703,
                -198.3507080078125,
                -4.5623779296875,
                1.0
            ],
            "mesh": 1
        },
        {
            "name": "Shape001",
            "matrix": [
                1.0,
                0.0,
                0.0,
                0.0,
                0.0,
                1.0,
                0.0,
                0.0,
                0.0,
                0.0,
                1.0,
                0.0,
                90.13636016845703,
                -198.3507080078125,
                -4.5623779296875,
                1.0
            ],
            "mesh": 2
        },
        {
            "name": "Line008",
            "matrix": [
                4.371138828673793e-8,
                -1.0,
                2.9802322387695315e-8,
                0.0,
                0.17364844679832459,
                3.6939972858363038e-8,
                0.9848077297210693,
                0.0,
                0.9848077297210693,
                3.7872183611398216e-8,
                -0.17364844679832459,
                0.0,
                -239.4530792236328,
                -212.2646942138672,
                -186.91441345214845,
                1.0
            ],
            "mesh": 3
        },
        {
            "name": "Line007",
            "matrix": [
                -1.6292068494294654e-7,
                -1.0,
                -8.940696716308594e-8,
                0.0,
                -0.17364829778671266,
                -5.975777384037429e-8,
                0.9848077297210693,
                0.0,
                -0.9848077297210693,
                1.7597092494270329e-7,
                -0.17364829778671266,
                0.0,
                93.57438659667969,
                -205.9668731689453,
                -186.91441345214845,
                1.0
            ],
            "mesh": 4
        }
    ],
    "scenes": [
        {
            "nodes": [
                0
            ]
        }
    ],
    "scene": 0
}