<?xml version="1.0" encoding="UTF-8"?>
<svg width="206px" height="68px" viewBox="0 0 206 68" version="1.1" xmlns="http://www.w3.org/2000/svg" xmlns:xlink="http://www.w3.org/1999/xlink">
    <!-- Generator: sketchtool 52.5 (67469) - http://www.bohemiancoding.com/sketch -->
    <title>D18095F1-6A3C-4AB4-90A8-62A742A90986</title>
    <desc>Created with sketchtool.</desc>
    <defs>
        <polygon id="path-1" points="0 0.186448598 5.36293333 0.186448598 5.36293333 8.40981308 0 8.40981308"></polygon>
        <polygon id="path-3" points="0.1215 0.186448598 6.0565 0.186448598 6.0565 8.40974766 0.1215 8.40974766"></polygon>
        <polygon id="path-5" points="0.317866667 0.186448598 5.35053333 0.186448598 5.35053333 8.40974766 0.317866667 8.40974766"></polygon>
        <polygon id="path-7" points="0.1472 0.186448598 7.09553333 0.186448598 7.09553333 8.31243458 0.1472 8.31243458"></polygon>
        <polygon id="path-9" points="0.196033333 0.186448598 6.28536667 0.186448598 6.28536667 8.40997664 0.196033333 8.40997664"></polygon>
        <polygon id="path-11" points="0.131033333 0.0704252336 5.16366667 0.0704252336 5.16366667 8.29378972 0.131033333 8.29378972"></polygon>
        <polygon id="path-13" points="0.184233333 0.281439252 6.70323333 0.281439252 6.70323333 8.5046729 0.184233333 8.5046729"></polygon>
        <polygon id="path-15" points="0.196033333 0.28114486 6.28536667 0.28114486 6.28536667 8.5046729 0.196033333 8.5046729"></polygon>
        <polygon id="path-17" points="0.020745541 2.12824398e-05 36.9866389 2.12824398e-05 36.9866389 34.8738387 0.020745541 34.8738387"></polygon>
    </defs>
    <g id="Page-1" stroke="none" stroke-width="1" fill="none" fill-rule="evenodd">
        <g id="30-de-ani---new-logo" transform="translate(-83.000000, -12.000000)">
            <g id="Group-22" transform="translate(83.000000, 11.500000)">
                <path d="M87.8475881,43.9850321 L88.9936716,40.764063 L89.1337393,40.764063 L90.2835305,43.9850321 L87.8475881,43.9850321 Z M88.0111377,36.5 C87.5765159,36.5 87.1423059,36.6347035 86.7575317,36.9188532 C86.3717275,37.2009834 86.0854126,37.591563 85.9134177,38.0312175 L81.4693574,49.5 L85.8862281,49.5 L86.7058302,47.1864116 L91.4195208,47.1864116 L92.2457144,49.5 L96.6594953,49.5 L91.6222071,36.5 L88.0111377,36.5 Z M107.640392,36.5 L107.640392,43.1154169 L107.558823,43.1154169 L103.346081,37.423739 C103.135979,37.1460518 102.871087,36.9095633 102.55923,36.742951 C102.2414,36.5773485 101.911211,36.5 101.579786,36.5 L97.5946533,36.5 L97.5946533,49.5 L101.957351,49.5 L101.957351,42.7240295 L102.041391,42.7240295 L106.486276,48.5966584 C106.695965,48.8703065 106.956944,49.1007364 107.268595,49.2629057 C107.581893,49.4242671 107.910847,49.5 108.233208,49.5 L112,49.5 L112,36.5 L107.640392,36.5 Z M73.8389626,36.9378369 C73.4414174,37.2302667 73.1606641,37.635791 72.9969084,38.0916018 L71.4895326,42.2668049 L71.405698,42.2668049 L69.9045016,38.0934194 C69.7442477,37.6388203 69.4626704,37.2314785 69.068215,36.9378369 C68.6776732,36.6425797 68.2292505,36.5 67.7894791,36.5 L62.3703003,36.5 L62.3703003,49.5 L66.729908,49.5 L66.729908,40.900988 L66.8174503,40.900988 L69.8361156,49.5 L73.0768294,49.5 L76.0909631,40.900988 L76.1776815,40.900988 L76.1776815,49.5 L80.5362593,49.5 L80.5362593,36.5 L75.1137848,36.5 C74.6729834,36.5 74.2303283,36.6425797 73.8389626,36.9378369 Z M20.5374289,44.6718786 L27.4687211,44.6718786 L27.4687211,41.4260692 L20.5374289,41.4260692 L20.5374289,39.747627 L29.6492459,39.747627 L29.6492459,36.5 L16.1248839,36.5 L16.1248839,46.9683009 C16.1248839,47.6185938 16.3450786,48.2644436 16.7912355,48.7608473 C17.2334787,49.2530099 17.8190853,49.5 18.4005723,49.5 L29.6787013,49.5 L29.6787013,46.2543925 L20.5374289,46.2543925 L20.5374289,44.6718786 Z M9.86838858,45.4784841 C9.31100146,46.101917 8.46606356,46.1097932 7.36447216,46.1097932 L4.6786737,46.1097932 L4.6786737,39.8910146 L7.36447216,39.8910146 C8.45205678,39.8910146 9.46775371,39.9497833 10.0286425,40.5924019 C10.5083745,41.1401019 10.570581,42.0799972 10.570581,42.9990912 C10.570581,43.9490842 10.3547119,44.9336114 9.86838858,45.4784841 Z M8.16965555,36.5 L0,36.5 L0,46.9683009 C0,47.6185938 0.221430581,48.2644436 0.668823347,48.7608473 C1.11271442,49.2530099 1.69626124,49.5 2.27774825,49.5 L8.16965555,49.5 C10.3748982,49.5 12.0726013,49.0561045 13.2493761,47.8035839 C14.3381966,46.6433565 15.0480103,44.9647124 15.0480103,42.9990912 C15.0480103,41.122128 14.3668281,39.5034643 13.3589585,38.3505072 C12.2417124,37.0729443 10.274585,36.5 8.16965555,36.5 Z M51.598887,44.6718786 L58.5299731,44.6718786 L58.5299731,41.4260692 L51.598887,41.4260692 L51.598887,39.747627 L60.7057603,39.747627 L60.7057603,36.5 L47.185724,36.5 L47.185724,46.9683009 C47.185724,47.6185938 47.4073605,48.2644436 47.8528995,48.7608473 C48.2959666,49.2530099 48.8813673,49.5 49.4640902,49.5 L60.7387174,49.5 L60.7387174,46.2543925 L51.598887,46.2543925 L51.598887,44.6718786 Z M40.8200582,45.2787513 C40.2628771,45.9011744 39.5248438,46.1097932 38.4271661,46.1097932 L35.7378659,46.1097932 L35.7378659,39.8910146 L38.4271661,39.8910146 C39.5155746,39.8910146 40.2628771,40.1149819 40.8245898,40.7549751 C41.3069995,41.2996458 41.632657,42.0799972 41.632657,42.9990912 C41.632657,43.9490842 41.3069995,44.7348884 40.8200582,45.2787513 Z M39.2300837,36.5 L31.0589862,36.5 L31.0589862,46.9683009 C31.0589862,47.6185938 31.2849484,48.2644436 31.7302814,48.7608473 C32.1710827,49.2530099 32.7577193,49.5 33.3408541,49.5 L39.2300837,49.5 C41.4371801,49.5 43.1352952,49.0561045 44.3108341,47.8035839 C45.3969768,46.6433565 46.1080265,44.9647124 46.1080265,42.9990912 C46.1080265,41.122128 45.429728,39.5034643 44.4224763,38.3505072 C43.2998748,37.0729443 41.3372789,36.5 39.2300837,36.5 Z" id="Fill-1" fill="#FFFFFF"></path>
                <g id="Group-70" transform="translate(30.000000, 0.000000)">
                    <g id="Group-69" transform="translate(0.000000, 0.500000)">
                        <g id="Group-3" transform="translate(0.000000, 0.140654)">
                            <mask id="mask-2" fill="white">
                                <use xlink:href="#path-1"></use>
                            </mask>
                            <g id="Clip-2"></g>
                            <path d="M2.48893333,8.40981308 C1.62993333,8.40981308 0.781933333,8.28028037 0.209266667,8.10724299 C0.0992666667,8.07485981 -6.66666667e-05,8.01009346 -6.66666667e-05,7.90182243 L-6.66666667e-05,7.03728972 C-6.66666667e-05,6.9185514 0.0882666667,6.84299065 0.198266667,6.84299065 L0.220266667,6.84299065 C0.991266667,6.90775701 1.81693333,6.94014019 2.41193333,6.94014019 C3.1936,6.94014019 3.50193333,6.61598131 3.50193333,6.02163551 L3.50193333,5.82700935 C3.50193333,5.34093458 3.32593333,4.89771028 2.60993333,4.89771028 L0.671933333,4.89771028 C0.550933333,4.89771028 0.4626,4.80056075 0.4626,4.68182243 L0.4626,3.76299065 C0.4626,3.64425234 0.550933333,3.5578972 0.671933333,3.5578972 L2.5656,3.5578972 C3.2816,3.5578972 3.50193333,3.09341121 3.50193333,2.61780374 L3.50193333,2.46668224 C3.50193333,1.98028037 3.2706,1.6561215 2.41193333,1.6561215 C1.64093333,1.6561215 1.07926667,1.71009346 0.2426,1.78598131 L0.220266667,1.78598131 C0.110266667,1.78598131 0.0222666667,1.71009346 0.0222666667,1.59135514 L0.0222666667,0.72682243 C0.0222666667,0.618878505 0.132266667,0.553785047 0.2426,0.521401869 C0.815266667,0.348691589 1.62993333,0.186448598 2.48893333,0.186448598 C4.28393333,0.186448598 5.36293333,0.780794393 5.36293333,2.40158879 L5.36293333,2.55303738 C5.36293333,3.17976636 4.9666,3.88205607 4.38293333,4.20621495 C4.9886,4.51957944 5.36293333,5.12504673 5.36293333,5.82700935 L5.36293333,6.02163551 C5.36293333,7.67481308 4.1956,8.40981308 2.48893333,8.40981308" id="Fill-1" fill="#F68E1E" mask="url(#mask-2)"></path>
                        </g>
                        <g id="Group-6" transform="translate(6.666667, 0.140654)">
                            <mask id="mask-4" fill="white">
                                <use xlink:href="#path-3"></use>
                            </mask>
                            <g id="Clip-5"></g>
                            <path d="M4.17383333,3.83881308 C4.17383333,2.13133645 3.70016667,1.72082243 3.0835,1.72082243 C2.46683333,1.72082243 2.0045,2.13133645 2.0045,3.83881308 L2.0045,4.76811215 C2.0045,6.47558879 2.46683333,6.87530841 3.0835,6.87530841 C3.70016667,6.87530841 4.17383333,6.47558879 4.17383333,4.76811215 L4.17383333,3.83881308 Z M3.0835,8.40974766 C1.2115,8.40974766 0.1215,7.36171028 0.1215,4.76811215 L0.1215,3.83881308 C0.1215,1.24554206 1.2115,0.186383178 3.0835,0.186383178 C4.9555,0.186383178 6.0565,1.24554206 6.0565,3.83881308 L6.0565,4.76811215 C6.0565,7.36171028 4.9555,8.40974766 3.0835,8.40974766 Z" id="Fill-4" fill="#F68E1E" mask="url(#mask-4)"></path>
                        </g>
                        <path d="M21.6764333,3.7418271 C21.6764333,2.2829486 21.0377667,1.89402336 20.0464333,1.89402336 C19.7714333,1.89402336 19.4191,1.90481776 19.2651,1.91561215 L19.2651,6.96215421 C19.4191,6.9726215 19.7714333,6.98374299 20.0464333,6.98374299 C21.0377667,6.98374299 21.6764333,6.59449065 21.6764333,5.13593925 L21.6764333,3.7418271 Z M20.0464333,8.55056542 C19.1327667,8.55056542 18.1527667,8.46421028 17.7011,8.38832243 C17.4917667,8.35593925 17.3817667,8.25878972 17.3817667,8.01019159 L17.3817667,0.867574766 C17.3817667,0.618976636 17.4917667,0.5215 17.7011,0.489443925 C18.1527667,0.413556075 19.1327667,0.327200935 20.0464333,0.327200935 C22.2381,0.327200935 23.5594333,1.46159346 23.5594333,3.7418271 L23.5594333,5.13593925 C23.5594333,7.41584579 22.2381,8.55056542 20.0464333,8.55056542 Z" id="Fill-7" fill="#F68E1E"></path>
                        <g id="Group-11" transform="translate(24.666667, 0.140654)">
                            <mask id="mask-6" fill="white">
                                <use xlink:href="#path-5"></use>
                            </mask>
                            <g id="Clip-10"></g>
                            <path d="M5.1302,8.26942056 C4.74486667,8.32339252 4.1832,8.40974766 2.9942,8.40974766 C1.57353333,8.40974766 0.317866667,8.05320561 0.317866667,6.08666355 L0.317866667,2.499 C0.317866667,0.532457944 1.58453333,0.186383178 3.0052,0.186383178 C4.1942,0.186383178 4.74486667,0.273065421 5.1302,0.327037383 C5.28453333,0.348626168 5.35053333,0.402598131 5.35053333,0.542925234 L5.35053333,1.54811215 C5.35053333,1.66685047 5.2512,1.764 5.1302,1.764 L2.89486667,1.764 C2.3772,1.764 2.1902,1.93703738 2.1902,2.499 L2.1902,3.48227103 L5.0422,3.48227103 C5.16353333,3.48227103 5.2622,3.57942056 5.2622,3.69848598 L5.2622,4.72493458 C5.2622,4.8436729 5.16353333,4.94114953 5.0422,4.94114953 L2.1902,4.94114953 L2.1902,6.08666355 C2.1902,6.64829907 2.3772,6.82133645 2.89486667,6.82133645 L5.1302,6.82133645 C5.2512,6.82133645 5.35053333,6.91848598 5.35053333,7.0372243 L5.35053333,8.04241121 C5.35053333,8.18273832 5.28453333,8.24783178 5.1302,8.26942056" id="Fill-9" fill="#F68E1E" mask="url(#mask-6)"></path>
                        </g>
                        <g id="Group-14" transform="translate(34.000000, 0.140654)">
                            <mask id="mask-8" fill="white">
                                <use xlink:href="#path-7"></use>
                            </mask>
                            <g id="Clip-13"></g>
                            <path d="M3.76986667,1.88290187 C3.7482,1.77495794 3.72586667,1.72098598 3.62653333,1.72098598 C3.52753333,1.72098598 3.49453333,1.77495794 3.47253333,1.88290187 L2.80086667,4.86542523 L4.44186667,4.86542523 L3.76986667,1.88290187 Z M6.9082,8.31243458 L5.36653333,8.31243458 C5.25653333,8.31243458 5.1682,8.22607944 5.14653333,8.11813551 L4.74986667,6.34589252 L2.49253333,6.34589252 L2.0962,8.11813551 C2.0742,8.22607944 1.98586667,8.31243458 1.87586667,8.31243458 L0.3342,8.31243458 C0.2242,8.31243458 0.1472,8.24766822 0.1472,8.1397243 C0.1472,8.12892991 0.1582,8.10701402 0.1582,8.08542523 L1.79886667,1.38570561 C2.0522,0.34878972 2.86686667,0.186219626 3.62653333,0.186219626 C4.38686667,0.186219626 5.19053333,0.34878972 5.44353333,1.38570561 L7.0842,8.08542523 C7.0842,8.10701402 7.09553333,8.12892991 7.09553333,8.1397243 C7.09553333,8.24766822 7.0182,8.31243458 6.9082,8.31243458 Z" id="Fill-12" fill="#F68E1E" mask="url(#mask-8)"></path>
                        </g>
                        <path d="M48.3668667,8.45318692 L47.2878667,8.45318692 C47.0565333,8.45318692 46.8912,8.41000935 46.7152,8.11823364 L44.2045333,3.86066355 C44.1605333,3.7958972 44.1382,3.77430841 44.1055333,3.77430841 C44.0722,3.77430841 44.0505333,3.7958972 44.0505333,3.86066355 L44.0505333,8.23697196 C44.0505333,8.35603738 43.9512,8.45318692 43.8302,8.45318692 L42.5308667,8.45318692 C42.4095333,8.45318692 42.3105333,8.35603738 42.3105333,8.23697196 L42.3105333,0.834962617 C42.3105333,0.608280374 42.4978667,0.424448598 42.7288667,0.424448598 L43.8412,0.424448598 C44.0615333,0.424448598 44.1715333,0.532392523 44.3038667,0.759401869 L46.9135333,5.21127103 C46.9572,5.27636449 46.9685333,5.29795327 47.0015333,5.29795327 C47.0235333,5.29795327 47.0565333,5.27636449 47.0565333,5.20080374 L47.0565333,0.629869159 C47.0565333,0.510803738 47.1555333,0.424448598 47.2765333,0.424448598 L48.5762,0.424448598 C48.6972,0.424448598 48.7965333,0.510803738 48.7965333,0.629869159 L48.7965333,8.0426729 C48.7965333,8.26935514 48.5982,8.45318692 48.3668667,8.45318692" id="Fill-15" fill="#F68E1E"></path>
                        <path d="M52.1412667,8.45318692 L50.6656,8.45318692 C50.5446,8.45318692 50.4676,8.35603738 50.4676,8.23697196 L50.4676,0.629869159 C50.4676,0.510803738 50.5446,0.424448598 50.6656,0.424448598 L52.1412667,0.424448598 C52.2622667,0.424448598 52.3506,0.510803738 52.3506,0.629869159 L52.3506,8.23697196 C52.3506,8.35603738 52.2622667,8.45318692 52.1412667,8.45318692" id="Fill-17" fill="#F68E1E"></path>
                        <g id="Group-21" transform="translate(57.000000, 0.140654)">
                            <mask id="mask-10" fill="white">
                                <use xlink:href="#path-9"></use>
                            </mask>
                            <g id="Clip-20"></g>
                            <path d="M4.45736667,5.8271729 C4.45736667,5.30871495 4.17136667,4.86549065 3.29036667,4.86549065 L2.05703333,4.86549065 L2.05703333,6.88633178 C2.23303333,6.88633178 2.8057,6.89712617 2.96003333,6.89712617 C4.09403333,6.89712617 4.45736667,6.5510514 4.45736667,5.94623832 L4.45736667,5.8271729 Z M4.41336667,2.56366822 C4.41336667,1.96964953 4.02803333,1.69913551 2.89403333,1.69913551 C2.7177,1.69913551 2.21136667,1.69913551 2.05703333,1.71025701 L2.05703333,3.57932243 L3.29036667,3.57932243 C4.16003333,3.57932243 4.41336667,3.1903972 4.41336667,2.72591121 L4.41336667,2.56366822 Z M2.8167,8.40997664 C2.0897,8.40997664 1.23103333,8.35567757 0.8017,8.28011682 C0.361033333,8.20455607 0.196033333,8.06390187 0.196033333,7.5778271 L0.196033333,1.00764019 C0.196033333,0.521565421 0.350366667,0.370116822 0.7797,0.305350467 C1.15403333,0.251378505 2.04603333,0.186285047 2.7507,0.186285047 C4.83203333,0.186285047 6.23036667,0.726985981 6.23036667,2.44492991 L6.23036667,2.63922897 C6.23036667,3.34184579 5.88903333,3.94698598 5.30536667,4.22796729 C5.88903333,4.5089486 6.28536667,5.08170561 6.28536667,5.8271729 L6.28536667,5.98941589 C6.28536667,7.89119159 4.7217,8.40997664 2.8167,8.40997664 Z" id="Fill-19" fill="#F68E1E" mask="url(#mask-10)"></path>
                        </g>
                        <path d="M67.8193333,8.55046729 C66.0683333,8.55046729 64.6476667,7.90214953 64.6476667,5.43841121 L64.6476667,0.629672897 C64.6476667,0.510607477 64.747,0.424579439 64.868,0.424579439 L66.311,0.424579439 C66.432,0.424579439 66.531,0.510607477 66.531,0.629672897 L66.531,5.43841121 C66.531,6.54042056 66.828,7.00523364 67.8193333,7.00523364 C68.8106667,7.00523364 69.1186667,6.54042056 69.1186667,5.43841121 L69.1186667,0.629672897 C69.1186667,0.510607477 69.2176667,0.424579439 69.339,0.424579439 L70.7706667,0.424579439 C70.8916667,0.424579439 71.0016667,0.510607477 71.0016667,0.629672897 L71.0016667,5.43841121 C71.0016667,7.90214953 69.5703333,8.55046729 67.8193333,8.55046729" id="Fill-22" fill="#F68E1E"></path>
                        <path d="M78.6927,8.45318692 L77.6137,8.45318692 C77.3823667,8.45318692 77.2170333,8.41000935 77.0410333,8.11823364 L74.5303667,3.86066355 C74.4863667,3.7958972 74.4640333,3.77430841 74.4313667,3.77430841 C74.3980333,3.77430841 74.3763667,3.7958972 74.3763667,3.86066355 L74.3763667,8.23697196 C74.3763667,8.35603738 74.2770333,8.45318692 74.1560333,8.45318692 L72.8567,8.45318692 C72.7353667,8.45318692 72.6363667,8.35603738 72.6363667,8.23697196 L72.6363667,0.834962617 C72.6363667,0.608280374 72.8237,0.424448598 73.0547,0.424448598 L74.1670333,0.424448598 C74.3873667,0.424448598 74.4973667,0.532392523 74.6297,0.759401869 L77.2393667,5.21127103 C77.2830333,5.27636449 77.2943667,5.29795327 77.3273667,5.29795327 C77.3493667,5.29795327 77.3823667,5.27636449 77.3823667,5.20080374 L77.3823667,0.629869159 C77.3823667,0.510803738 77.4813667,0.424448598 77.6023667,0.424448598 L78.9020333,0.424448598 C79.0230333,0.424448598 79.1223667,0.510803738 79.1223667,0.629869159 L79.1223667,8.0426729 C79.1223667,8.26935514 78.9240333,8.45318692 78.6927,8.45318692" id="Fill-24" fill="#F68E1E"></path>
                        <path d="M82.4671333,8.45318692 L80.9914667,8.45318692 C80.8704667,8.45318692 80.7934667,8.35603738 80.7934667,8.23697196 L80.7934667,0.629869159 C80.7934667,0.510803738 80.8704667,0.424448598 80.9914667,0.424448598 L82.4671333,0.424448598 C82.5881333,0.424448598 82.6764667,0.510803738 82.6764667,0.629869159 L82.6764667,8.23697196 C82.6764667,8.35603738 82.5881333,8.45318692 82.4671333,8.45318692" id="Fill-26" fill="#F68E1E"></path>
                        <path d="M23.5673667,12.991743 C23.5457,12.883472 23.5233667,12.8295 23.4240333,12.8295 C23.3250333,12.8295 23.2920333,12.883472 23.2700333,12.991743 L22.5983667,15.9739393 L24.2393667,15.9739393 L23.5673667,12.991743 Z M26.7057,19.4212757 L25.1640333,19.4212757 C25.0540333,19.4212757 24.9657,19.3349206 24.9440333,19.2266495 L24.5473667,17.4547336 L22.2900333,17.4547336 L21.8937,19.2266495 C21.8717,19.3349206 21.7833667,19.4212757 21.6733667,19.4212757 L20.1317,19.4212757 C20.0217,19.4212757 19.9447,19.3565093 19.9447,19.2482383 C19.9447,19.2374439 19.9557,19.2158551 19.9557,19.1942664 L21.5963667,12.4945467 C21.8497,11.4573037 22.6643667,11.2950607 23.4240333,11.2950607 C24.1843667,11.2950607 24.9880333,11.4573037 25.2410333,12.4945467 L26.8817,19.1942664 C26.8817,19.2158551 26.8930333,19.2374439 26.8930333,19.2482383 C26.8930333,19.3565093 26.8157,19.4212757 26.7057,19.4212757 Z" id="Fill-28" fill="#F68E1E"></path>
                        <path d="M32.4137333,19.3779019 C32.0504,19.4534626 31.2024,19.5185561 30.6187333,19.5185561 C29.1984,19.5185561 27.9320667,19.1616869 27.9320667,17.1951449 L27.9320667,11.6085561 C27.9320667,11.4898178 28.0310667,11.3923411 28.1524,11.3923411 L29.5947333,11.3923411 C29.7157333,11.3923411 29.8150667,11.4898178 29.8150667,11.6085561 L29.8150667,17.1951449 C29.8150667,17.7571075 30.0024,17.9298178 30.5197333,17.9298178 L32.4137333,17.9298178 C32.5347333,17.9298178 32.6340667,18.0272944 32.6340667,18.1460327 L32.6340667,19.1512196 C32.6340667,19.2915467 32.5680667,19.3455187 32.4137333,19.3779019" id="Fill-30" fill="#F68E1E"></path>
                        <path d="M37.2106,12.991743 C37.1889333,12.883472 37.1666,12.8295 37.0672667,12.8295 C36.9682667,12.8295 36.9352667,12.883472 36.9132667,12.991743 L36.2416,15.9739393 L37.8826,15.9739393 L37.2106,12.991743 Z M39.0716,9.35010748 C38.8622667,10.2146402 38.2236,10.9169299 37.0346,10.9169299 C35.8449333,10.9169299 35.2062667,10.2146402 34.9972667,9.35010748 C34.9972667,9.32851869 34.9862667,9.3177243 34.9862667,9.30692991 C34.9862667,9.25263084 35.0302667,9.23104206 35.0962667,9.23104206 L36.0542667,9.23104206 C36.1426,9.23104206 36.1756,9.27454673 36.1976,9.36090187 C36.3186,9.81459346 36.6269333,9.97683645 37.0346,9.97683645 C37.4419333,9.97683645 37.7502667,9.81459346 37.8712667,9.36090187 C37.8936,9.27454673 37.9042667,9.23104206 38.0146,9.23104206 L38.9726,9.23104206 C39.0386,9.23104206 39.0826,9.25263084 39.0826,9.30692991 C39.0826,9.3177243 39.0716,9.32851869 39.0716,9.35010748 Z M40.3489333,19.4212757 L38.8072667,19.4212757 C38.6972667,19.4212757 38.6089333,19.3349206 38.5872667,19.2266495 L38.1906,17.4547336 L35.9332667,17.4547336 L35.5369333,19.2266495 C35.5149333,19.3349206 35.4266,19.4212757 35.3166,19.4212757 L33.7749333,19.4212757 C33.6649333,19.4212757 33.5879333,19.3565093 33.5879333,19.2482383 C33.5879333,19.2374439 33.5989333,19.2158551 33.5989333,19.1942664 L35.2396,12.4945467 C35.4929333,11.4573037 36.3076,11.2950607 37.0672667,11.2950607 C37.8276,11.2950607 38.6312667,11.4573037 38.8842667,12.4945467 L40.5249333,19.1942664 C40.5249333,19.2158551 40.5362667,19.2374439 40.5362667,19.2482383 C40.5362667,19.3565093 40.4589333,19.4212757 40.3489333,19.4212757 Z" id="Fill-32" fill="#F68E1E"></path>
                        <path d="M46.3958333,12.9160187 L44.6118333,12.9160187 L44.6118333,19.2052243 C44.6118333,19.3239626 44.5128333,19.4211121 44.3915,19.4211121 L42.9491667,19.4211121 C42.8281667,19.4211121 42.7288333,19.3239626 42.7288333,19.2052243 L42.7288333,12.9160187 L40.9338333,12.9160187 C40.8128333,12.9160187 40.7138333,12.8293364 40.7138333,12.7105981 L40.7138333,11.5977944 C40.7138333,11.478729 40.8128333,11.3923738 40.9338333,11.3923738 L46.3958333,11.3923738 C46.5168333,11.3923738 46.6268333,11.478729 46.6268333,11.5977944 L46.6268333,12.7105981 C46.6268333,12.8293364 46.5168333,12.9160187 46.3958333,12.9160187" id="Fill-34" fill="#F68E1E"></path>
                        <path d="M51.0234333,19.5184579 C49.2724333,19.5184579 47.8517667,18.8701402 47.8517667,16.4064019 L47.8517667,11.5976636 C47.8517667,11.4789252 47.9511,11.392243 48.0721,11.392243 L49.5151,11.392243 C49.6361,11.392243 49.7351,11.4789252 49.7351,11.5976636 L49.7351,16.4064019 C49.7351,17.5084112 50.0321,17.9732243 51.0234333,17.9732243 C52.0147667,17.9732243 52.3227667,17.5084112 52.3227667,16.4064019 L52.3227667,11.5976636 C52.3227667,11.4789252 52.4217667,11.392243 52.5431,11.392243 L53.9747667,11.392243 C54.0957667,11.392243 54.2057667,11.4789252 54.2057667,11.5976636 L54.2057667,16.4064019 C54.2057667,18.8701402 52.7744333,19.5184579 51.0234333,19.5184579" id="Fill-36" fill="#F68E1E"></path>
                        <path d="M60.014,13.8236963 C60.014,13.1645841 59.4963333,12.862014 58.5713333,12.862014 C58.4173333,12.862014 57.8446667,12.8836028 57.7126667,12.8943972 L57.7126667,14.9688832 C57.8336667,14.9800047 58.373,14.9907991 58.4943333,14.9907991 C59.6503333,14.9907991 60.014,14.6990234 60.014,13.9640234 L60.014,13.8236963 Z M61.996,19.4210794 L60.3113333,19.4210794 C60.19,19.4210794 60.146,19.3131355 60.091,19.2051916 L58.6156667,16.4712664 L58.4943333,16.4817336 C58.263,16.4817336 57.9216667,16.460472 57.7126667,16.460472 L57.7126667,19.2051916 C57.7126667,19.3239299 57.6133333,19.4210794 57.4923333,19.4210794 L56.061,19.4210794 C55.9393333,19.4210794 55.8403333,19.3239299 55.8403333,19.2051916 L55.8403333,11.9543037 C55.8403333,11.5869673 55.9946667,11.4898178 56.336,11.4355187 C56.8423333,11.3599579 57.7786667,11.2951916 58.5713333,11.2951916 C60.4433333,11.2951916 61.886,11.9111262 61.886,13.8236963 L61.886,13.9640234 C61.886,15.1095374 61.2693333,15.8121542 60.4653333,16.1255187 L62.1283333,19.1728084 C62.15,19.215986 62.161,19.2591636 62.161,19.2915467 C62.161,19.3671075 62.1173333,19.4210794 61.996,19.4210794 Z" id="Fill-38" fill="#F68E1E"></path>
                        <path d="M65.1406333,19.4211776 L63.6649667,19.4211776 C63.5439667,19.4211776 63.4669667,19.324028 63.4669667,19.2049626 L63.4669667,11.5978598 C63.4669667,11.4787944 63.5439667,11.3924393 63.6649667,11.3924393 L65.1406333,11.3924393 C65.2616333,11.3924393 65.3499667,11.4787944 65.3499667,11.5978598 L65.3499667,19.2049626 C65.3499667,19.324028 65.2616333,19.4211776 65.1406333,19.4211776" id="Fill-40" fill="#F68E1E"></path>
                        <path d="M74.4895667,14.7098178 C74.4895667,13.2512664 73.8509,12.862014 72.8595667,12.862014 C72.5845667,12.862014 72.2322333,12.8728084 72.0782333,12.8836028 L72.0782333,17.9298178 C72.2322333,17.9406121 72.5845667,17.9517336 72.8595667,17.9517336 C73.8509,17.9517336 74.4895667,17.5624813 74.4895667,16.1036028 L74.4895667,14.7098178 Z M72.8595667,19.5185561 C71.9459,19.5185561 70.9659,19.4318738 70.5142333,19.3563131 C70.3049,19.3239299 70.1949,19.2267804 70.1949,18.9781822 L70.1949,11.8352383 C70.1949,11.5869673 70.3049,11.4898178 70.5142333,11.4571075 C70.9659,11.3815467 71.9459,11.2951916 72.8595667,11.2951916 C75.0512333,11.2951916 76.3725667,12.4299112 76.3725667,14.7098178 L76.3725667,16.1036028 C76.3725667,18.3838364 75.0512333,19.5185561 72.8595667,19.5185561 Z" id="Fill-42" fill="#F68E1E"></path>
                        <g id="Group-46" transform="translate(77.666667, 11.224766)">
                            <mask id="mask-12" fill="white">
                                <use xlink:href="#path-11"></use>
                            </mask>
                            <g id="Clip-45"></g>
                            <path d="M4.94336667,8.15313551 C4.55803333,8.20710748 3.99636667,8.29378972 2.80736667,8.29378972 C1.3867,8.29378972 0.131033333,7.93692056 0.131033333,5.9703785 L0.131033333,2.38271495 C0.131033333,0.416172897 1.3977,0.0704252336 2.81836667,0.0704252336 C4.00736667,0.0704252336 4.55803333,0.156780374 4.94336667,0.210752336 C5.0977,0.232341121 5.1637,0.286313084 5.1637,0.42696729 L5.1637,1.4318271 C5.1637,1.55056542 5.06436667,1.64804206 4.94336667,1.64804206 L2.70803333,1.64804206 C2.19036667,1.64804206 2.00336667,1.82107944 2.00336667,2.38271495 L2.00336667,3.36598598 L4.85536667,3.36598598 C4.9767,3.36598598 5.07536667,3.46346262 5.07536667,3.58220093 L5.07536667,4.60897664 C5.07536667,4.72771495 4.9767,4.82486449 4.85536667,4.82486449 L2.00336667,4.82486449 L2.00336667,5.9703785 C2.00336667,6.53234112 2.19036667,6.7050514 2.70803333,6.7050514 L4.94336667,6.7050514 C5.06436667,6.7050514 5.1637,6.80252804 5.1637,6.92126636 L5.1637,7.92645327 C5.1637,8.06678037 5.0977,8.13154673 4.94336667,8.15313551" id="Fill-44" fill="#F68E1E" mask="url(#mask-12)"></path>
                        </g>
                        <g id="Group-49" transform="translate(11.000000, 21.981776)">
                            <mask id="mask-14" fill="white">
                                <use xlink:href="#path-13"></use>
                            </mask>
                            <g id="Clip-48"></g>
                            <path d="M4.80923333,3.75003738 C4.80923333,2.45340187 4.3689,1.90223364 3.44356667,1.90223364 C2.51856667,1.90223364 2.08923333,2.45340187 2.08923333,3.75003738 L2.08923333,5.0358785 C2.08923333,6.33284112 2.51856667,6.88368224 3.44356667,6.88368224 C4.3689,6.88368224 4.80923333,6.33284112 4.80923333,5.0358785 L4.80923333,3.75003738 Z M3.44356667,8.50480374 C1.62656667,8.50480374 0.184233333,7.5431215 0.184233333,5.0358785 L0.184233333,3.75003738 C0.184233333,1.2431215 1.62656667,0.281439252 3.44356667,0.281439252 C5.26056667,0.281439252 6.70323333,1.2431215 6.70323333,3.75003738 L6.70323333,5.0358785 C6.70323333,7.5431215 5.26056667,8.50480374 3.44356667,8.50480374 Z" id="Fill-47" fill="#F68E1E" mask="url(#mask-14)"></path>
                        </g>
                        <path d="M22.1601667,23.9595701 C22.1385,23.8516262 22.1161667,23.7976542 22.0168333,23.7976542 C21.9178333,23.7976542 21.8848333,23.8516262 21.8628333,23.9595701 L21.1911667,26.9420935 L22.8321667,26.9420935 L22.1601667,23.9595701 Z M25.2985,30.3891028 L23.7568333,30.3891028 C23.6468333,30.3891028 23.5585,30.3027477 23.5368333,30.1948037 L23.1401667,28.4225607 L20.8828333,28.4225607 L20.4865,30.1948037 C20.4645,30.3027477 20.3761667,30.3891028 20.2661667,30.3891028 L18.7245,30.3891028 C18.6145,30.3891028 18.5375,30.3243364 18.5375,30.2163925 C18.5375,30.2055981 18.5485,30.1836822 18.5485,30.1620935 L20.1891667,23.4623738 C20.4425,22.4254579 21.2571667,22.2628879 22.0168333,22.2628879 C22.7771667,22.2628879 23.5808333,22.4254579 23.8338333,23.4623738 L25.4745,30.1620935 C25.4745,30.1836822 25.4858333,30.2055981 25.4858333,30.2163925 C25.4858333,30.3243364 25.4085,30.3891028 25.2985,30.3891028 Z" id="Fill-50" fill="#F68E1E"></path>
                        <path d="M33.9576667,30.3891682 L32.504,30.3891682 C32.405,30.3891682 32.3276667,30.2920187 32.3276667,30.1729533 L32.3276667,25.666785 C32.3276667,25.5912243 32.295,25.5804299 32.2726667,25.5804299 C32.24,25.5804299 32.2176667,25.6020187 32.1846667,25.6559907 L31.1936667,27.439028 C31.1166667,27.5688879 31.0063333,27.6228598 30.8633333,27.6228598 L29.9823333,27.6228598 C29.8393333,27.6228598 29.729,27.5688879 29.652,27.439028 L28.6606667,25.6559907 C28.628,25.6020187 28.6056667,25.5804299 28.573,25.5804299 C28.5506667,25.5804299 28.518,25.5912243 28.518,25.666785 L28.518,30.1729533 C28.518,30.2920187 28.4406667,30.3891682 28.3413333,30.3891682 L26.888,30.3891682 C26.7996667,30.3891682 26.7006667,30.356785 26.7006667,30.2380467 L26.7006667,22.7277664 C26.7006667,22.500757 26.866,22.3604299 27.0973333,22.3604299 L28.1323333,22.3604299 C28.3636667,22.3604299 28.518,22.4683738 28.617,22.6522056 L30.3016667,25.7318785 C30.3456667,25.8182336 30.379,25.8722056 30.423,25.8722056 C30.4666667,25.8722056 30.5,25.8182336 30.544,25.7318785 L32.2286667,22.6522056 C32.3276667,22.4683738 32.482,22.3604299 32.7133333,22.3604299 L33.7483333,22.3604299 C33.9793333,22.3604299 34.145,22.5115514 34.145,22.7385607 L34.145,30.2380467 C34.145,30.356785 34.0456667,30.3891682 33.9576667,30.3891682" id="Fill-52" fill="#F68E1E"></path>
                        <path d="M40.597,30.3460561 C40.2116667,30.400028 39.65,30.4863832 38.461,30.4863832 C37.0403333,30.4863832 35.7846667,30.1298411 35.7846667,28.1632991 L35.7846667,24.5756355 C35.7846667,22.6090935 37.0513333,22.2630187 38.472,22.2630187 C39.661,22.2630187 40.2116667,22.3497009 40.597,22.4036729 C40.7513333,22.4252617 40.8173333,22.4792336 40.8173333,22.6195607 L40.8173333,23.6247477 C40.8173333,23.743486 40.718,23.8406355 40.597,23.8406355 L38.3616667,23.8406355 C37.844,23.8406355 37.657,24.0136729 37.657,24.5756355 L37.657,25.5589065 L40.509,25.5589065 C40.6303333,25.5589065 40.729,25.6560561 40.729,25.7751215 L40.729,26.8015701 C40.729,26.9203084 40.6303333,27.017785 40.509,27.017785 L37.657,27.017785 L37.657,28.1632991 C37.657,28.7249346 37.844,28.897972 38.3616667,28.897972 L40.597,28.897972 C40.718,28.897972 40.8173333,28.9951215 40.8173333,29.1138598 L40.8173333,30.1190467 C40.8173333,30.2593738 40.7513333,30.3244673 40.597,30.3460561" id="Fill-54" fill="#F68E1E"></path>
                        <path d="M48.3672,30.3891682 L47.2882,30.3891682 C47.0568667,30.3891682 46.8915333,30.3459907 46.7155333,30.054215 L44.2048667,25.7966449 C44.1608667,25.7318785 44.1385333,25.7102897 44.1058667,25.7102897 C44.0725333,25.7102897 44.0508667,25.7318785 44.0508667,25.7966449 L44.0508667,30.1729533 C44.0508667,30.2920187 43.9515333,30.3891682 43.8305333,30.3891682 L42.5312,30.3891682 C42.4098667,30.3891682 42.3108667,30.2920187 42.3108667,30.1729533 L42.3108667,22.7709439 C42.3108667,22.5442617 42.4982,22.3604299 42.7292,22.3604299 L43.8415333,22.3604299 C44.0618667,22.3604299 44.1718667,22.4683738 44.3042,22.6953832 L46.9138667,27.1472523 C46.9575333,27.2123458 46.9688667,27.2339346 47.0018667,27.2339346 C47.0238667,27.2339346 47.0568667,27.2123458 47.0568667,27.136785 L47.0568667,22.5658505 C47.0568667,22.446785 47.1558667,22.3604299 47.2768667,22.3604299 L48.5765333,22.3604299 C48.6975333,22.3604299 48.7968667,22.446785 48.7968667,22.5658505 L48.7968667,29.9786542 C48.7968667,30.2053364 48.5985333,30.3891682 48.3672,30.3891682" id="Fill-56" fill="#F68E1E"></path>
                        <path d="M52.1412667,30.3891682 L50.6656,30.3891682 C50.5446,30.3891682 50.4676,30.2920187 50.4676,30.1729533 L50.4676,22.5658505 C50.4676,22.446785 50.5446,22.3604299 50.6656,22.3604299 L52.1412667,22.3604299 C52.2622667,22.3604299 52.3506,22.446785 52.3506,22.5658505 L52.3506,30.1729533 C52.3506,30.2920187 52.2622667,30.3891682 52.1412667,30.3891682" id="Fill-58" fill="#F68E1E"></path>
                        <g id="Group-62" transform="translate(57.000000, 21.981776)">
                            <mask id="mask-16" fill="white">
                                <use xlink:href="#path-15"></use>
                            </mask>
                            <g id="Clip-61"></g>
                            <path d="M4.45736667,5.92203271 C4.45736667,5.40357477 4.17136667,4.96035047 3.29036667,4.96035047 L2.05703333,4.96035047 L2.05703333,6.98119159 C2.23303333,6.98119159 2.8057,6.99198598 2.96003333,6.99198598 C4.09403333,6.99198598 4.45736667,6.64591121 4.45736667,6.04109813 L4.45736667,5.92203271 Z M4.41336667,2.65852804 C4.41336667,2.06450935 4.02803333,1.79399533 2.89403333,1.79399533 C2.7177,1.79399533 2.21136667,1.79399533 2.05703333,1.80511682 L2.05703333,3.67418224 L3.29036667,3.67418224 C4.16003333,3.67418224 4.41336667,3.28525701 4.41336667,2.82077103 L4.41336667,2.65852804 Z M2.8167,8.50483645 C2.0897,8.50483645 1.23103333,8.45053738 0.8017,8.37497664 C0.361033333,8.29941589 0.196033333,8.15876168 0.196033333,7.67268692 L0.196033333,1.1025 C0.196033333,0.616425234 0.350366667,0.464976636 0.7797,0.40021028 C1.15403333,0.346238318 2.04603333,0.28114486 2.7507,0.28114486 C4.83203333,0.28114486 6.23036667,0.821845794 6.23036667,2.53978972 L6.23036667,2.73408879 C6.23036667,3.43670561 5.88903333,4.04184579 5.30536667,4.3228271 C5.88903333,4.60380841 6.28536667,5.17656542 6.28536667,5.92203271 L6.28536667,6.0842757 C6.28536667,7.9860514 4.7217,8.50483645 2.8167,8.50483645 Z" id="Fill-60" fill="#F68E1E" mask="url(#mask-16)"></path>
                        </g>
                        <path d="M67.8193333,30.4864486 C66.0683333,30.4864486 64.6476667,29.8381308 64.6476667,27.3743925 L64.6476667,22.5656542 C64.6476667,22.4465888 64.747,22.3605607 64.868,22.3605607 L66.311,22.3605607 C66.432,22.3605607 66.531,22.4465888 66.531,22.5656542 L66.531,27.3743925 C66.531,28.4764019 66.828,28.941215 67.8193333,28.941215 C68.8106667,28.941215 69.1186667,28.4764019 69.1186667,27.3743925 L69.1186667,22.5656542 C69.1186667,22.4465888 69.2176667,22.3605607 69.339,22.3605607 L70.7706667,22.3605607 C70.8916667,22.3605607 71.0016667,22.4465888 71.0016667,22.5656542 L71.0016667,27.3743925 C71.0016667,29.8381308 69.5703333,30.4864486 67.8193333,30.4864486" id="Fill-63" fill="#F68E1E"></path>
                        <path d="M78.6930333,30.3891682 L77.6140333,30.3891682 C77.3827,30.3891682 77.2173667,30.3459907 77.0413667,30.054215 L74.5307,25.7966449 C74.4867,25.7318785 74.4643667,25.7102897 74.4317,25.7102897 C74.3983667,25.7102897 74.3767,25.7318785 74.3767,25.7966449 L74.3767,30.1729533 C74.3767,30.2920187 74.2773667,30.3891682 74.1563667,30.3891682 L72.8570333,30.3891682 C72.7357,30.3891682 72.6367,30.2920187 72.6367,30.1729533 L72.6367,22.7709439 C72.6367,22.5442617 72.8240333,22.3604299 73.0550333,22.3604299 L74.1673667,22.3604299 C74.3877,22.3604299 74.4977,22.4683738 74.6300333,22.6953832 L77.2397,27.1472523 C77.2833667,27.2123458 77.2947,27.2339346 77.3277,27.2339346 C77.3497,27.2339346 77.3827,27.2123458 77.3827,27.136785 L77.3827,22.5658505 C77.3827,22.446785 77.4817,22.3604299 77.6027,22.3604299 L78.9023667,22.3604299 C79.0233667,22.3604299 79.1227,22.446785 79.1227,22.5658505 L79.1227,29.9786542 C79.1227,30.2053364 78.9243667,30.3891682 78.6930333,30.3891682" id="Fill-65" fill="#F68E1E"></path>
                        <path d="M82.4671333,30.3891682 L80.9914667,30.3891682 C80.8704667,30.3891682 80.7934667,30.2920187 80.7934667,30.1729533 L80.7934667,22.5658505 C80.7934667,22.446785 80.8704667,22.3604299 80.9914667,22.3604299 L82.4671333,22.3604299 C82.5881333,22.3604299 82.6764667,22.446785 82.6764667,22.5658505 L82.6764667,30.1729533 C82.6764667,30.2920187 82.5881333,30.3891682 82.4671333,30.3891682" id="Fill-67" fill="#F68E1E"></path>
                    </g>
                </g>
                <path d="M140.128921,28.8246628 C140.500994,27.5762461 141.083944,26.5255645 141.870014,25.7198803 C143.171536,24.3793623 145.105478,23.6730506 147.45719,23.6730506 C147.824232,23.6730506 148.190226,23.6922383 148.552657,23.7271803 L148.55643,22.1374234 C148.19337,22.1075308 147.824232,22.0919786 147.45719,22.0919786 C144.639915,22.0919786 142.290928,22.9717882 140.670157,24.6389021 C139.752236,25.5835461 139.063639,26.7849023 138.618409,28.1898507 L140.128921,28.8246628 Z M170,32.8625766 L170,34.5 L133,34.5 L133,32.8625766 L136.159373,30.9563226 C136.854049,24.3215971 141.204055,20.5 147.618177,20.5 C153.951176,20.5 160.11082,24.2301017 161.208593,30.7155666 L170,32.8625766 Z" id="Fill-3" fill="#F68E1E"></path>
                <path d="M159.961534,37.9211353 C159.644858,37.4270835 159.329829,36.9542835 158.953647,36.5 L155.891072,36.5 C156.175833,36.931138 156.276107,37.499045 156.060323,37.9550119 C155.693819,38.7331224 154.755938,38.94038 154.069258,38.6075053 C153.388342,38.2689494 153.073313,37.3502824 153.399667,36.6542334 C153.427875,36.5970008 153.459584,36.5481848 153.495205,36.5 L137.807382,36.5 C136.471907,38.1037745 135.43087,39.9329023 134.598823,42.2095803 C135.367864,43.3502339 136.400047,44.3372853 137.614865,44.9340191 C140.57346,46.3947121 143.195612,45.1985093 144.587505,42.2520839 L145.426964,40.4667222 L146.87095,41.1775003 L145.992781,43.0379797 C143.870557,47.5393636 140.049235,48.0750773 136.109315,45.8350112 C135.032657,46.9371591 133.548933,49.579326 133,51.3101905 L152.514086,62.5 C153.392048,56.000526 148.362087,50.9954114 149.463453,48.425206 C150.56523,45.8568943 154.557861,49.5248288 160.069838,48.4805448 C161.84306,48.140516 166,45.3260201 166,39.4744104 L159.961534,37.9211353 Z" id="Fill-5" fill="#FFFFFF"></path>
                <path d="M169.135201,25.4207568 C167.938568,21.3938244 167.865758,17.2283221 169.311467,13.2509961 C169.48403,12.7766605 170.35487,11.531991 170.276301,11.0412566 C168.387768,13.3942807 168.06835,13.8874748 169.318665,12.5208391 C169.54923,12.302325 169.779795,12.0840159 170.010359,11.8657067 C171.432415,10.5857797 173.056241,9.52211203 174.801416,8.73250941 C184.325529,4.42310755 174.939426,4.99727083 172.998445,7.13096079 C166.857526,13.8813253 162.034177,22.1992108 164.798075,31.5 C164.373556,30.0714588 169.584812,26.9335468 169.135201,25.4207568" id="Fill-7" fill="#00A7E1"></path>
                <path d="M200.390973,32.9836691 C200.32142,33.1436463 200.251659,33.3034223 200.182105,33.4633996 C199.929351,33.7493463 199.690052,34.0328782 199.489878,34.2000997 C198.148481,35.3225562 196.644999,36.2602844 195.032632,36.9718309 C191.000783,38.7510996 186.638346,38.9422673 182.365128,37.962281 C181.394686,37.7397215 178.868596,44.1291515 178,43.9299345 C183.574869,45.208545 189.325279,44.3740474 193.99926,41.043704 C197.300379,38.6917369 199.50147,35.230997 201.808755,32.0165615 C204.455944,28.3282313 202.107671,28.7306897 200.390973,32.9836691" id="Fill-9" fill="#00A7E1"></path>
                <g id="Group-13" transform="translate(169.000000, 0.500000)">
                    <mask id="mask-18" fill="white">
                        <use xlink:href="#path-17"></use>
                    </mask>
                    <g id="Clip-12"></g>
                    <path d="M0.994786111,11.5619911 C1.22521389,11.341429 1.45564167,11.1206598 1.68606944,10.9000976 C3.10728056,9.60696154 4.73034722,8.53231657 6.47428056,7.73477219 C13.3053028,4.61024556 21.5721306,6.01852959 26.9985917,11.2310444 C32.4256694,16.4445947 34.2658028,24.6395651 31.5199917,31.6903047 L31.1430028,32.5887071 C29.2987583,36.1212219 29.5246639,35.6094763 32.9278417,30.6951864 C38.4616028,22.704003 38.7142306,12.1565769 31.3331417,5.08926923 C23.8248139,-2.09981361 11.6129639,-1.59614497 4.67258611,6.11669527 C3.46741389,7.45560059 2.61805833,8.48095562 2.02626389,9.26193195 C-0.710913889,12.8725237 -0.221897222,12.9066953 0.994786111,11.5619911" id="Fill-11" fill="#00A7E1" mask="url(#mask-18)"></path>
                </g>
                <path d="M169.99602,4.29783306 C170.259572,3.96389013 171.372163,2.08569408 172,1.5 C165.217963,5.53381526 158.435925,9.56783755 151.653682,13.6018598 C149.63305,14.8036817 148.9863,18.3186743 147,19.5 C153.879893,15.4080087 160.759786,11.3158104 167.639884,7.22361202 C168.525311,6.69671509 169.358521,5.10567268 169.99602,4.29783306 Z" id="Fill-14" fill="#00A7E1"></path>
                <path d="M165.640249,62.2641465 C164.544474,62.7593531 163.419521,63.1801236 162.266009,63.5208754 C157.26994,64.99595 151.868466,64.9796154 146.88916,63.4445784 C136.902403,60.3660269 129.904968,51.7233797 128.366745,41.5 C128.509537,42.4490598 121.844663,44.471653 122.002769,45.5226489 C124.822396,64.2606871 145.617275,74.4290669 162.09114,64.8162696 C163.466083,64.0140143 164.597038,63.3428491 165.37122,62.8441275 C168.432559,60.8721921 166.374904,61.9436579 165.640249,62.2641465" id="Fill-16" fill="#00A7E1"></path>
                <path d="M163.588947,63.8548992 C165.162744,62.8829004 172.733165,58.5612066 176.41144,50.9999245 C180.301947,43.0027008 179.775981,33.3045302 175.042904,25.7679202 C169.5583,17.0346118 159.492155,12.5522435 149.305643,13.6681968 C147.061317,13.9141021 145.195318,17.394702 143,17.6353059 C153.189793,16.5187408 163.252042,21.0013131 168.737055,29.7350292 C174.122617,38.3101099 173.976618,49.5102195 168.39728,57.9521526 C167.002086,60.0631456 164.135829,63.0415359 162.970912,63.8548992 C161.661226,64.7696017 162.287464,64.6586793 163.588947,63.8548992" id="Fill-18" fill="#00A7E1"></path>
                <path d="M173,0.5 L129.668912,0.5 C128.070122,0.5 126.510725,6.5 125,6.5 L168.331088,6.5 C169.219167,5.96444366 170.055479,4.34577045 170.69483,3.52379782 C171.008937,3.12028782 172.525024,0.5 173,0.5" id="Fill-20" fill="#00A7E1"></path>
            </g>
        </g>
    </g>
</svg>